<svg width="96" height="96" viewBox="0 0 96 96" fill="none" xmlns="http://www.w3.org/2000/svg">
  <circle cx="48" cy="48" r="42" fill="#BDEFEA"/>
  <circle cx="48" cy="48" r="36" fill="#8FDCD4"/>
  <path d="M25 52C32 39 48 34 64 42L76 35C75 44 73 51 68 57C59 68 38 68 25 52Z" fill="#30A6A0"/>
  <path d="M27 52C38 46 52 46 67 56C58 68 38 68 27 52Z" fill="#23958F"/>
  <circle cx="57" cy="42" r="8" fill="#EFFFFD"/>
  <circle cx="59" cy="41" r="3" fill="#0B1328"/>
  <path d="M34 40C31 34 28 29 23 26" stroke="#23958F" stroke-width="4" stroke-linecap="round"/>
  <path d="M39 58C43 55 48 55 52 58" stroke="#D5FFFB" stroke-width="3" stroke-linecap="round"/>
  <circle cx="48" cy="48" r="43" stroke="#EAF7F5" stroke-width="4"/>
</svg>
